<svg id="Calque_1" data-name="Calque 1" xmlns="http://www.w3.org/2000/svg" viewBox="0 0 735.4 417.19"><defs><style>.cls-1{fill:#fff;stroke-width:1.7px;}.cls-1,.cls-5,.cls-6,.cls-7,.cls-8,.cls-9{stroke:#0e5a40;stroke-miterlimit:10;}.cls-2,.cls-5,.cls-6,.cls-7,.cls-8{fill:#71b144;}.cls-3{fill:#0e5a40;}.cls-4,.cls-9{fill:#ecdc00;}.cls-5{stroke-width:1.98px;}.cls-6{stroke-width:5.67px;}.cls-7{stroke-width:1.42px;}.cls-8{stroke-width:0.85px;}.cls-9{stroke-width:2.83px;}</style></defs><title>logoTest</title><path class="cls-1" d="M433.79,144.78l-5.1,3.88-18-1.13,48.61-11.2-106.72-2.72,13.83-11.54-95-16.56,23.28,80.88,15.57-14.46,36,74L327.2,281.47c-19,8.27-30.57,27.47-28.47,47.82,2.47,24,23,42.06,47.76,42.06a49.3,49.3,0,0,0,5.14-.27l.64-.07-3.41,41.89,58,41.47,68-25,4-43.79,55.85,4-18-15.44,28.15,9.21-1.51-10.22-3.69-5.9,3.08,1.76,5.38,36.42,29.55-40.67,15.8,38.56,32-36.71,51.66-10.81,9.32,30.63,44.16-22.79L757.68,386l17-28.61L790,369.68l25.86,8.1-10.64,6.05,91.56,76.74,86.68-69.18V338.25L956.58,310a27,27,0,0,0,14.09-23.46c0-.69,0-1.38-.08-2.07l34.13,1.21L993.77,92l-34.35,73.42-34.76,29.34-22.48-11.14L880.42,202.2l-31.29-23.14,8.26-41.25-.13-1.26-8.63-87.32h0l-18.71,70.2L813.13,131V114.42l-52.42,29.16,4.18-26.93L735.2,126V99.38l-53.36,43.45-25.22,7.95-36.24-5.22L631,105.31l-67.57,42.93-38.31,7,11.48-18.93-73,10-12.35,18Z" transform="translate(-270.23 -44.48)"/><path class="cls-2" d="M987.18,126.18l-20.84,44.57-40.46,34.14-22.45-11.13-46.79,39.89-26.3-4,18.46-92.25-4-40.68-7.45,28-32.7,22.48V128.88l-55,30.59,4.74-30.59-27.69,8.73V117.27L686,150.45l-28.62,9-47.61-6.85,7.52-28.49L566.6,156.31,508.05,167l12-19.85-51.6,7.06-16.35,23.87-19.45-21.76L404.1,178.07l-32.56-16,26.31-6.81-46-2.88L392,143.12l-62.19-1.58,17.08-14.24-63.5-11.08L299,170.75l13.85-12.86,42.92,88.22-22.58,42.12c-16.73,6-27.89,22.3-26,40.19,2.18,21.15,21.69,36.46,43.57,34.21a41.14,41.14,0,0,0,10.95-2.69l-4,48.84,50.43,36.06,58.75-21.63,4.22-46.75,38.51,2.77-14-12,12.68-4.79,21.35,7-4.59-13.31,23.09-8.72,5.34,36.16,26.27-36.16,16.35,39.92,24.79-28.47,62.07-13,8.62,28.31,40.08-20.68,23.74,19.63,16.88-28.48,20,16.07,45-7.22,3,20.16-20.31,11.54,76.85,64.41L975,387.3V341.65L940.16,305c.72.07,1.45.11,2.19.11,10.94,0,19.82-8.34,19.82-18.64a17.84,17.84,0,0,0-3.86-11l37.39,1.32Z" transform="translate(-270.23 -44.48)"/><path class="cls-2" d="M987.18,126.18l-20.84,44.57-40.46,34.14-22.45-11.13-46.79,39.89-26.3-4,18.46-92.25-4-40.68-7.45,28-32.7,22.48V128.88l-55,30.59,4.74-30.59-27.69,8.73V117.27L686,150.45l-28.62,9-47.61-6.85,7.52-28.49L566.6,156.31,508.05,167l12-19.85-51.6,7.06-16.35,23.87-19.45-21.76L404.1,178.07l-32.56-16,26.31-6.81-46-2.88L392,143.12l-62.19-1.58,17.08-14.24-63.5-11.08L299,170.75l13.85-12.86,42.92,88.22-22.58,42.12c-16.73,6-27.89,22.3-26,40.19,2.18,21.15,21.69,36.46,43.57,34.21a41.14,41.14,0,0,0,10.95-2.69l-4,48.84,50.43,36.06,58.75-21.63,4.22-46.75,38.51,2.77-14-12,12.68-4.79,21.35,7-4.59-13.31,23.09-8.72,5.34,36.16,26.27-36.16,16.35,39.92,24.79-28.47,62.07-13,8.62,28.31,40.08-20.68,23.74,19.63,16.88-28.48,20,16.07,45-7.22,3,20.16-20.31,11.54,76.85,64.41L975,387.3V341.65L940.16,305c.72.07,1.45.11,2.19.11,10.94,0,19.82-8.34,19.82-18.64a17.84,17.84,0,0,0-3.86-11l37.39,1.32Z" transform="translate(-270.23 -44.48)"/><path class="cls-3" d="M875.23,307.51l-.49.72-41.23-2.93L856,289.83l.84,4.84,21.08-9.47,29.81,5.61L927.37,287l15.24-15.54-10.9.11,2.12-6.61-28-.22-1.41-8.78-6,.57L889.68,283l-18.44-.5-16.84-2.08L845,277l35.21-15.43H865l8.26-4-18,4,16.42-9.5L840,261.54h-9.29l-24.53-15.43,1.94-6.77.26-.89h0l.08-.28,22.25-77.51h0l5-17.4-7.35-.67L825,152.06l-17.08,14-7.24,1.71-9.68,1-4.17-10.24-12.66,4.26L776,152.35,746.71,173.6l-12.11,1.3L737,164.62l-29.57,13.45H694.78l8.47-13.55-8-.7-7.51,7-15.33.49-9.76,6.73H648.38l2.75-7.92-30.23,1.76,2-9.87L590.8,165.6l-14.1,15.63L551.63,185l-5.73-11.25-8.06,20.4L492.49,175.3l2.87,15.48-27.79-12.71L465.84,190l-23,2.89-16.06-19.53-43.91,76-15,9.5,21.76-42.63-22.95-8.4,13.06-34.82-35.21,2.38-27.3-32.44,5.94-5.54L299,132.57l4.09,21.89,7.91-6.59L341.9,184l21.63-1.85L347.7,212.38l29.54,10.46-25.32,51.09,49.57-15.88,6.27,5.19L410,273.68l-3.46,10.79,5.65-.61L475.62,277l-38.87,70.4L427,338.24l-16.83,5.1-2.38-6.91h-.45l-7.59,10.07-20.68,6.27-11.39,48.78,36.55,34.25,47.93-14.52,11.39-48.78-.18-.18-.2.19-22.9-19.69,5.74-4.35,5.64,4.55,11.77-2.47-.69-13.45,23.34-16.72-6.11,33,29.27-8.26-14,16.08L544,335.36l7.86-2.22,4.35,27.7L576,323.25l19.58,27.3,36.7-11.94,18.68,3,10.69-5.14L658,330.24l3.84-1.25,13.85,12.66,2.23-18.89h6.23l14.48,33.33,25.72-32.84,26.5,29.67,16.49-29.24L782,316.29l-3.11,25.36,18.19-4.1,6.08,4.82L831,347l-4.34-16.11,8.75-2,16.67,12.55L846,350.35l11.1,36-22.64.8,26.82,12.76,48.27,18.94,44.9-25.93,7.72-51.28-35.27-38Zm-90.3-15-.17.22.19-.32Z" transform="translate(-270.23 -44.48)"/><polygon class="cls-3" points="123.17 258.86 101.31 263.74 105.62 277.01 119.58 269.28 123.17 258.86"/><polygon class="cls-3" points="708.34 178.68 708.34 122.51 695.94 145.45 672.73 166.55 691.98 161.54 691.16 164.48 681.43 171.04 690.44 167.14 682.75 195.69 638.86 164.71 622.32 183.17 629.35 182.64 621.04 185.67 611.15 194.77 621.04 192.27 605.74 200.05 601.01 205.19 612.73 202.29 605.74 208.22 610.23 206.38 605.74 210.86 613.39 206.38 612.73 212.01 618.93 205.19 644.67 182.38 692.38 216.96 696.55 187.58 704.12 192.04 705.99 207.07 707.77 189.96 697.92 177.91 699.76 164.9 708.34 178.68"/><polygon class="cls-4" points="637.1 307.98 641.63 312.86 640.63 319.44 634.87 322.77 628.67 320.34 626.71 313.98 630.46 308.48 637.1 307.98"/><path class="cls-4" d="M912.13,335.71l-17.8,0L878.87,354l-.36,16.85,26.6,14.84,16.71-14.24,4.06-21.07Zm-4.55,43.52-20-12-2-13.18,12.16-12.66,11.29,0,9.88,11,.29,14.93Z" transform="translate(-270.23 -44.48)"/><path class="cls-4" d="M926,312.27l-43.64,1.85-25.75,35.27,11.51,42.13,40.12,17.26,38.51-20.6,7.9-42.95Zm9.79,69.39-30.38,13.93-29.83-15.07-6.83-32.72,21.33-25.73,33.42.63,20.34,26.52Z" transform="translate(-270.23 -44.48)"/><ellipse class="cls-5" cx="400.77" cy="271.1" rx="8.59" ry="13.5" transform="translate(-332.71 86.97) rotate(-17.3)"/><circle class="cls-6" cx="108.73" cy="245.34" r="17.51"/><ellipse class="cls-6" cx="346.85" cy="324.54" rx="28.75" ry="27.78" transform="translate(-301.67 -7.21) rotate(-5.88)"/><ellipse class="cls-2" cx="351.82" cy="319.97" rx="16.46" ry="18.26" transform="translate(-327.35 518.23) rotate(-72.98)"/><ellipse class="cls-5" cx="355.81" cy="319.97" rx="11.07" ry="9.53" transform="translate(-312.97 10.66) rotate(-8.36)"/><circle class="cls-6" cx="121.73" cy="285.25" r="16.11"/><circle class="cls-5" cx="127.62" cy="265.07" r="6.21"/><ellipse class="cls-5" cx="601.01" cy="240.65" rx="6.18" ry="5.69"/><ellipse class="cls-5" cx="649.37" cy="216.96" rx="13.8" ry="11.77"/><ellipse class="cls-7" cx="644.68" cy="216.51" rx="2.47" ry="4.5"/><ellipse class="cls-5" cx="623.23" cy="238.53" rx="15.63" ry="19.19"/><ellipse class="cls-5" cx="861.1" cy="297.71" rx="11.37" ry="8.48" transform="matrix(0.96, -0.29, 0.29, 0.96, -319.72, 222.65)"/><ellipse class="cls-5" cx="586.62" cy="232.34" rx="12.07" ry="7.27"/><ellipse class="cls-5" cx="672.12" cy="242.03" rx="14.98" ry="14.09"/><ellipse class="cls-5" cx="667.2" cy="240.72" rx="4.92" ry="8.38"/><ellipse class="cls-8" cx="665.73" cy="239.85" rx="1.47" ry="3.91"/><circle class="cls-5" cx="626.68" cy="212.01" r="6.53"/><ellipse class="cls-5" cx="918.31" cy="287.35" rx="9.15" ry="3.96" transform="translate(-314.13 239.06) rotate(-17.15)"/><ellipse class="cls-5" cx="622.32" cy="237.13" rx="5.84" ry="9.2"/><ellipse class="cls-5" cx="643.54" cy="233.82" rx="3.61" ry="5.88"/><polygon class="cls-4" points="177.43 166.42 159.5 137.67 116.11 215.74 166.62 193.59 165.04 219.04 176.12 176.84 151.46 181.59 160.95 185.41 137.87 194.9 157.13 156.27 177.43 166.42"/><path class="cls-4" d="M516.23,211.43,473,188l-8.79,64.24,11.39-23.33,16.91-6,16.36,22.35-9.23-24.53Zm-38.77,8.44,5.17-15,15.14,8.38Z" transform="translate(-270.23 -44.48)"/><polygon class="cls-4" points="302.38 198.86 277.65 141.3 252.34 201.63 303.56 166.22 267.96 182.84 277.26 163.45 302.38 198.86"/><polygon class="cls-4" points="360.53 143.48 365.68 133.59 318.99 141.3 313.32 226.93 321.46 181.29 350.05 167.9 322.87 173.43 326.91 150.79 360.53 143.48"/><polygon class="cls-4" points="378.86 176.38 385.26 155.15 431.94 141.3 376.16 144.86 369.04 208.95 375.91 186.16 409.79 172.35 378.86 176.38"/><polygon class="cls-4" points="436.09 145.06 451.13 136.75 441.83 206.57 436.09 145.06"/><polygon class="cls-4" points="462.99 142.49 456.47 157.12 482.58 147.83 488.12 196.29 495.24 143.9 524.71 133.59 462.99 142.49"/><polygon class="cls-4" points="534.4 135.37 549.83 126.27 534.4 189.17 534.4 135.37"/><polygon class="cls-4" points="235.52 285.1 239.76 271.47 260.94 257.41 242.59 262.37 246.6 249.5 271.72 240.4 276.37 232.49 235.03 242.18 216.43 300.13 283.29 280.45 235.52 285.1"/><polygon class="cls-4" points="288.93 302.9 297.33 231.1 325.13 277.59 341.94 235.65 356.18 232.49 327.3 296.08 303.47 261.56 288.93 302.9"/><polygon class="cls-4" points="362.81 276.6 384.37 249 402.47 258.69 384.27 231.1 344.21 290.54 397.32 271.75 400.39 286.19 402.47 263.44 381.5 265.42 393.47 267.89 362.81 276.6"/><polygon class="cls-4" points="415.72 234.96 437.18 226.26 424.82 294.5 415.72 234.96"/><polygon class="cls-4" points="437.18 293.9 450.93 230.21 478.03 278.87 497.61 229.72 514.72 226.26 480.4 297.17 454.39 259.39 437.18 293.9"/><polygon class="cls-4" points="539.79 258.09 570.7 244.35 541.6 246.36 543.2 235.95 586.62 221.51 533.81 227.05 519.27 284.51 585.43 274.02 537.96 269.97 539.79 258.09"/><path class="cls-4" d="M422.47,367.21,400.19,371l-4.75,19.91,13.19,12.53,15.83-3.75,8.23-18.63Zm-1.83,24.08-8.56,2.59L404,388.21l3.57-9.15,8.56-2.6,9.88,4.85Z" transform="translate(-270.23 -44.48)"/><path class="cls-4" d="M424.2,346.66l-39.94,12.1-9.49,40.64,30.45,28.53,39.94-12.1,9.49-40.63Zm14.64,58.83L411,417.29,386.89,399.1l3.68-30,27.83-11.8,24.13,18.19Z" transform="translate(-270.23 -44.48)"/><polygon class="cls-9" points="133.79 240.27 205.39 232.49 144.48 342.82 133.79 240.27"/><polygon class="cls-3" points="137.33 274.2 130.55 271.27 133.82 265.07 131.78 259.39 126.73 258.86 122.38 259.82 126.24 237.23 133.79 240.27 134.61 248.13 161.25 243.17 134.87 250.62 135.33 255.05 153.24 253.45 135.83 259.82 136.77 268.89 146.77 262.36 137.06 271.69 137.33 274.2"/><polygon class="cls-3" points="137.94 280.06 146.77 278.08 137.94 282.04 137.94 280.06"/><polygon class="cls-3" points="137.44 275.27 152.05 266.31 137.62 277.01 137.44 275.27"/></svg>